<svg width="25" height="25" viewBox="0 0 25 25" fill="none" xmlns="http://www.w3.org/2000/svg">
<path d="M11.9165 10.1245V7.40723L7.34619 10.4492L9.38721 11.8115L11.9165 10.1245ZM18.1201 13.4863V11.5381L16.6602 12.5122L18.1201 13.4863ZM12.5 1.5625C6.45996 1.5625 1.5625 6.45996 1.5625 12.5C1.5625 18.54 6.45996 23.4375 12.5 23.4375C18.54 23.4375 23.4375 18.54 23.4375 12.5C23.4375 6.45996 18.54 1.5625 12.5 1.5625ZM19.2871 14.5752C19.2871 14.6021 19.2847 14.6265 19.2822 14.6509C19.2822 14.6606 19.2798 14.668 19.2773 14.6753C19.2739 14.702 19.2673 14.7282 19.2578 14.7534C19.2529 14.7681 19.248 14.7827 19.2432 14.7949C19.2383 14.8047 19.2334 14.8145 19.231 14.8242C19.2236 14.8364 19.2188 14.8511 19.2114 14.8633C19.2065 14.873 19.2017 14.8804 19.1943 14.8901C19.187 14.9023 19.1772 14.9146 19.1699 14.9268C19.1626 14.9365 19.1577 14.9438 19.1504 14.9512C19.1406 14.9609 19.1309 14.9731 19.1211 14.9829C19.1138 14.9902 19.1064 14.9976 19.0967 15.0049C19.0869 15.0146 19.0747 15.0244 19.0625 15.0317C19.0527 15.0391 19.0454 15.0464 19.0356 15.0513C19.0332 15.0537 19.0283 15.0562 19.0259 15.0586L12.8223 19.1895C12.7246 19.2554 12.6123 19.2871 12.5 19.2871C12.3853 19.2871 12.2729 19.2529 12.1753 19.1895L5.97168 15.061C5.96924 15.0586 5.96436 15.0562 5.96191 15.0537L5.93506 15.0342C5.92285 15.0244 5.91309 15.0171 5.90332 15.0073C5.896 15 5.88867 14.9927 5.87891 14.9854C5.86914 14.9756 5.85938 14.9658 5.84961 14.9536C5.84237 14.9461 5.83583 14.9379 5.83008 14.9292C5.82031 14.917 5.81299 14.9048 5.80566 14.8926C5.80078 14.8828 5.79346 14.8755 5.78857 14.8657C5.78125 14.8535 5.77393 14.8389 5.76904 14.8267C5.76416 14.8169 5.75928 14.8071 5.75684 14.7974C5.75195 14.7827 5.74707 14.7681 5.74219 14.7559C5.73975 14.7461 5.73486 14.7363 5.73242 14.7266C5.72754 14.7095 5.7251 14.6948 5.72266 14.6777C5.72021 14.6704 5.72021 14.6606 5.71777 14.6533C5.71533 14.6289 5.71289 14.6021 5.71289 14.5776V10.4468C5.71289 10.4224 5.71533 10.3955 5.71777 10.3711C5.72021 10.3638 5.72021 10.354 5.72266 10.3467C5.7261 10.32 5.73266 10.2937 5.74219 10.2686C5.74707 10.2539 5.75195 10.2393 5.75684 10.2271C5.76172 10.2173 5.7666 10.2075 5.76904 10.1978C5.77393 10.1855 5.78125 10.1709 5.78857 10.1587C5.79346 10.1489 5.79834 10.1416 5.80566 10.1318C5.82031 10.1099 5.83496 10.0903 5.84961 10.0708C5.85938 10.061 5.86914 10.0488 5.87891 10.0391C5.88623 10.0317 5.89355 10.0244 5.90332 10.0171C5.91309 10.0073 5.92529 9.99756 5.93506 9.99023C5.94482 9.98291 5.95215 9.97559 5.96191 9.9707C5.96436 9.96826 5.96924 9.96582 5.97168 9.96338L12.1753 5.83496C12.3706 5.70557 12.627 5.70557 12.8223 5.83496L19.0259 9.96338C19.0283 9.96582 19.0332 9.96826 19.0356 9.9707L19.0625 9.99023L19.0967 10.0171C19.104 10.0244 19.1113 10.0317 19.1211 10.0391C19.1309 10.0488 19.1406 10.0586 19.1504 10.0708C19.1675 10.0903 19.1821 10.1099 19.1943 10.1318C19.1992 10.1416 19.2065 10.1489 19.2114 10.1587C19.2188 10.1709 19.2261 10.1831 19.231 10.1978C19.2358 10.2075 19.2407 10.2173 19.2432 10.2271C19.248 10.2417 19.2529 10.2563 19.2578 10.2686C19.2603 10.2783 19.2651 10.2881 19.2676 10.2979C19.2725 10.3149 19.2749 10.3296 19.2773 10.3467C19.2798 10.354 19.2798 10.3638 19.2822 10.3711C19.2847 10.3955 19.2871 10.4224 19.2871 10.4468V14.5752V14.5752ZM13.0835 14.8999V17.6172L17.6538 14.5752L15.6128 13.2129L13.0835 14.8999ZM6.87988 11.5381V13.4863L8.33984 12.5122L6.87988 11.5381ZM12.5 11.1353L10.437 12.5122L12.5 13.8892L14.563 12.5122L12.5 11.1353ZM17.6538 10.4492L13.0835 7.40723V10.1245L15.6128 11.8115L17.6538 10.4492ZM9.38721 13.2129L7.34619 14.5752L11.9165 17.6172V14.8999L9.38721 13.2129V13.2129Z" fill="black"/>
</svg>
