<svg width="24" height="24" viewBox="0 0 24 24" fill="none" xmlns="http://www.w3.org/2000/svg">
<path fill-rule="evenodd" clip-rule="evenodd" d="M2.94731e-07 1.99117C2.94731e-07 1.46308 0.209783 0.956618 0.583199 0.583202C0.956616 0.209786 1.46308 2.65451e-06 1.99117 2.65451e-06H21.84C22.1017 -0.000424776 22.3609 0.0507708 22.6028 0.150658C22.8447 0.250546 23.0645 0.397163 23.2497 0.582117C23.4348 0.767071 23.5817 0.986728 23.6818 1.22851C23.782 1.4703 23.8335 1.72946 23.8333 1.99117V21.84C23.8336 22.1018 23.7823 22.361 23.6823 22.6029C23.5823 22.8448 23.4356 23.0646 23.2505 23.2498C23.0655 23.4349 22.8457 23.5817 22.6039 23.6819C22.3621 23.782 22.1028 23.8335 21.8411 23.8333H1.99117C1.72959 23.8333 1.47058 23.7818 1.22893 23.6817C0.98728 23.5815 0.767727 23.4348 0.582816 23.2498C0.397905 23.0647 0.25126 22.8451 0.151258 22.6034C0.051256 22.3617 -0.00014202 22.1027 2.94731e-07 21.8411V1.99117ZM9.43367 9.087H12.6609V10.7077C13.1267 9.776 14.3184 8.9375 16.1092 8.9375C19.5422 8.9375 20.3558 10.7933 20.3558 14.1982V20.5053H16.8816V14.9738C16.8816 13.0347 16.4157 11.9405 15.2327 11.9405C13.5915 11.9405 12.909 13.1203 12.909 14.9738V20.5053H9.43367V9.087ZM3.47533 20.3569H6.95067V8.9375H3.47533V20.3558V20.3569ZM7.44792 5.213C7.45447 5.51056 7.40152 5.80644 7.29218 6.08326C7.18283 6.36008 7.0193 6.61227 6.81117 6.82504C6.60304 7.0378 6.35451 7.20685 6.08016 7.32226C5.80581 7.43767 5.51118 7.49712 5.21354 7.49712C4.91591 7.49712 4.62127 7.43767 4.34692 7.32226C4.07258 7.20685 3.82405 7.0378 3.61592 6.82504C3.40779 6.61227 3.24425 6.36008 3.13491 6.08326C3.02556 5.80644 2.97261 5.51056 2.97917 5.213C2.99203 4.62893 3.23308 4.07311 3.65071 3.66458C4.06833 3.25605 4.62933 3.02729 5.21354 3.02729C5.79776 3.02729 6.35875 3.25605 6.77637 3.66458C7.194 4.07311 7.43505 4.62893 7.44792 5.213V5.213Z" fill="black"/>
</svg>
